<mxfile host="65bd71144e">
    <diagram id="EV8Mn9D3kJ0bsbkWBrXS" name="Page-1">
        <mxGraphModel dx="1031" dy="589" grid="0" gridSize="10" guides="1" tooltips="1" connect="1" arrows="1" fold="1" page="0" pageScale="1" pageWidth="3300" pageHeight="4681" background="#1A1A1A" math="0" shadow="0">
            <root>
                <mxCell id="0"/>
                <mxCell id="1" parent="0"/>
                <mxCell id="39" value="specification per minor, major, beta, alpha, etc." style="text;html=1;strokeColor=none;fillColor=none;align=left;verticalAlign=middle;whiteSpace=wrap;rounded=0;fontColor=#990099;fontStyle=1" vertex="1" parent="1">
                    <mxGeometry x="589" y="330" width="195" height="75" as="geometry"/>
                </mxCell>
            </root>
        </mxGraphModel>
    </diagram>
</mxfile>